<?xml version="1.0" standalone="no"?><!-- Generator: Gravit.io --><svg xmlns="http://www.w3.org/2000/svg" xmlns:xlink="http://www.w3.org/1999/xlink" style="isolation:isolate" viewBox="0 0 376.543 512" width="376.543" height="512"><g><path d=" M 271.426 182.531 L 271.426 72.293 C 271.426 55.512 257.825 41.91 241.047 41.91 C 224.27 41.91 210.668 55.512 210.668 72.293 L 210.668 80.066 C 210.668 92.438 200.641 102.461 188.274 102.461 C 175.907 102.461 165.879 92.434 165.879 80.066 L 165.879 30.379 C 165.879 13.602 152.278 0 135.5 0 C 118.719 0 105.118 13.602 105.118 30.379 L 105.118 182.531 L 271.426 182.531 Z " fill="rgb(151,114,77)"/><path d=" M 260.45 512 L 116.094 512 C 90.875 512 70.43 491.555 70.43 466.34 L 70.43 382.395 L 306.114 382.395 L 306.114 466.34 C 306.114 491.555 285.668 512 260.45 512 Z " fill="rgb(122,166,134)"/><path d=" M 70.43 382.395 L 70.43 466.336 C 70.43 491.555 90.875 512 116.094 512 L 165.364 512 C 169.336 498.238 179.395 480.559 204.02 466.297 C 247.024 441.391 257.082 391.84 258.641 382.395 L 70.43 382.395 Z " fill="rgb(113,149,123)"/><path d=" M 259.27 443.574 L 117.274 443.574 C 52.504 443.574 0 391.07 0 326.301 L 0 202.602 C 0 166.141 29.559 136.586 66.016 136.586 L 310.528 136.586 C 346.985 136.586 376.543 166.145 376.543 202.602 L 376.543 326.301 C 376.543 391.07 324.039 443.574 259.27 443.574 Z " fill="rgb(137,183,149)"/><path d=" M 89.817 326.301 L 89.817 202.602 C 89.817 166.141 119.371 136.586 155.832 136.586 L 66.016 136.586 C 29.559 136.586 0 166.145 0 202.602 L 0 326.301 C 0 391.07 52.504 443.574 117.274 443.574 L 207.09 443.574 C 142.321 443.574 89.817 391.07 89.817 326.301 Z " fill="rgb(122,166,134)"/><g><path d=" M 271.364 300.176 C 267.094 300.176 263.637 296.715 263.637 292.449 L 263.637 279.621 C 263.637 275.355 267.094 271.894 271.364 271.894 C 275.629 271.894 279.09 275.355 279.09 279.621 L 279.09 292.449 C 279.09 296.715 275.629 300.176 271.364 300.176 Z " fill="rgb(87,86,92)"/><path d=" M 105.18 300.176 C 100.915 300.176 97.454 296.715 97.454 292.449 L 97.454 279.621 C 97.454 275.355 100.915 271.894 105.18 271.894 C 109.45 271.894 112.907 275.355 112.907 279.621 L 112.907 292.449 C 112.907 296.715 109.45 300.176 105.18 300.176 Z " fill="rgb(87,86,92)"/><path d=" M 188.27 308.266 C 178.27 308.266 168.27 305.031 159.926 298.559 C 156.555 295.941 155.942 291.09 158.559 287.719 C 161.172 284.344 166.028 283.73 169.399 286.348 C 180.508 294.965 196.032 294.965 207.145 286.348 C 210.512 283.73 215.368 284.344 217.985 287.719 C 220.598 291.09 219.985 295.941 216.614 298.559 C 208.27 305.031 198.27 308.266 188.27 308.266 L 188.27 308.266 Z " fill="rgb(87,86,92)"/></g></g></svg>